<?xml version="1.0" encoding="utf-8"?>
<!-- Generator: Adobe Illustrator 19.0.0, SVG Export Plug-In . SVG Version: 6.00 Build 0)  -->
<svg version="1.1" id="Шар_1" xmlns="http://www.w3.org/2000/svg" xmlns:xlink="http://www.w3.org/1999/xlink" x="0px" y="0px"
	 viewBox="-334 152 127.2 38" style="enable-background:new -334 152 127.2 38;" xml:space="preserve">
<style type="text/css">
	.st0{fill:#F44336;}
	.st1{fill:#282828;}
</style>
<title>logo</title>
<desc>Created with Sketch.</desc>
<g id="Page-1_1_">
	<g id="Desktop-HD" transform="translate(-157.000000, -4312.000000)">
		<g id="logo" transform="translate(157.000000, 4312.000000)">
			<g id="Page-1">
				<g id="Group-2">
					<polygon id="Fill-1" class="st0" points="-334,152 -311.9,190 -304.7,177.6 -319.6,152 					"/>
					<polygon id="Fill-2" class="st0" points="-304.1,152 -297.1,164 -290,152 					"/>
				</g>
			</g>
			<g>
				<path class="st1" d="M-280.2,177.2v-12.9h3.7c1.4,0,2.4,0.1,3,0.2c0.6,0.1,1.1,0.4,1.5,0.7c0.5,0.4,0.8,0.8,1.1,1.4
					s0.4,1.2,0.4,1.8c0,1-0.2,1.8-0.7,2.4c-0.5,0.6-1.2,1-2.2,1.3l3.5,5.2h-4l-3-5.1v5.1H-280.2z M-276.9,170.4h0.7
					c0.8,0,1.3-0.1,1.7-0.4c0.4-0.3,0.5-0.7,0.5-1.2c0-0.6-0.2-1.1-0.5-1.4s-0.9-0.4-1.6-0.4h-0.7V170.4z"/>
				<path class="st1" d="M-269,177.2v-12.9h7.9v2.8h-4.5v2.2h4.2v2.8h-4.2v2.2h4.5v2.9H-269z"/>
				<path class="st1" d="M-259.1,177.2v-12.9h2.7c2,0,3.4,0.1,4.3,0.3c0.8,0.2,1.6,0.5,2.2,0.9c0.8,0.6,1.4,1.3,1.9,2.2
					s0.6,1.9,0.6,3.1c0,1.1-0.2,2.2-0.6,3.1s-1,1.6-1.9,2.2c-0.6,0.4-1.3,0.7-2.1,0.9s-2,0.3-3.7,0.3h-0.6H-259.1z M-255.6,174.3
					h0.6c1.4,0,2.4-0.3,3-0.9c0.6-0.6,1-1.5,1-2.7c0-1.2-0.3-2.1-1-2.7c-0.6-0.6-1.6-0.9-3-0.9h-0.6V174.3z"/>
				<path class="st1" d="M-242.3,177.2l-5.4-12.9h3.7l2.6,7.2c0,0.1,0.1,0.3,0.1,0.6c0.1,0.3,0.2,0.7,0.3,1.2
					c0.1-0.4,0.2-0.8,0.3-1.1c0.1-0.3,0.1-0.5,0.2-0.7l2.6-7.2h3.7l-5.4,12.9H-242.3z"/>
				<path class="st1" d="M-233.4,177.2v-12.9h3.6v12.9H-233.4z"/>
				<path class="st1" d="M-227.4,177.2v-12.9h3.5v5.9l4.1-5.9h4.1l-4.8,6.3l5.2,6.6h-4.4l-4.2-5.8v5.8H-227.4z"/>
				<path class="st1" d="M-214.7,177.2v-12.9h7.9v2.8h-4.5v2.2h4.2v2.8h-4.2v2.2h4.5v2.9H-214.7z"/>
			</g>
		</g>
	</g>
</g>
</svg>
